<svg width="20" height="20" viewBox="0 0 20 20" xmlns="http://www.w3.org/2000/svg">
  <path d="M0 9.873c0 4.36 2.745 8.062 6.553 9.367.48.09.654-.214.654-.476 0-.234-.008-.855-.013-1.68-2.665.598-3.228-1.322-3.228-1.322-.435-1.14-1.064-1.444-1.064-1.444-.87-.613.066-.6.066-.6.962.07 1.468 1.017 1.468 1.017.855 1.51 2.243 1.073 2.79.82.086-.638.333-1.073.607-1.32-2.128-.25-4.365-1.096-4.365-4.88 0-1.077.374-1.958.987-2.648-.1-.25-.427-1.254.094-2.612 0 0 .804-.267 2.634 1.01.764-.218 1.584-.327 2.398-.33.814.003 1.634.112 2.4.33 1.83-1.277 2.632-1.01 2.632-1.01.522 1.358.194 2.362.095 2.612.614.69.984 1.57.984 2.65 0 3.79-2.24 4.626-4.375 4.87.344.306.65.908.65 1.83 0 1.32-.012 2.384-.012 2.707 0 .264.173.57.66.475 3.803-1.31 6.546-5.007 6.546-9.367C19.164 4.42 14.874 0 9.58 0 4.29 0 0 4.42 0 9.873z" fill="#fff"/>
</svg>
