<svg width="26" height="25" viewBox="0 0 26 25" xmlns="http://www.w3.org/2000/svg">
  <path d="M21.393.992H19.87v4.5h-4.59V6.99h4.59v4.513h1.523V6.99h4.594V5.492h-4.594v-4.5zm-8.3 13.78c-.663-.475-1.887-1.59-1.887-2.27 0-.796.225-1.188 1.406-2.126 1.213-.96 2.07-2.31 2.07-3.882 0-1.87-.82-3.692-2.362-4.293h2.324L16.284 1h-7.33c-3.286 0-6.38 2.525-6.38 5.45 0 2.988 2.24 5.4 5.585 5.4.23 0 .457-.006.678-.022-.217.42-.37.896-.37 1.39 0 .83.44 1.503.996 2.052-.42 0-.827.013-1.27.013-4.07 0-7.205 2.63-7.205 5.355C.99 23.32 4.25 25 8.32 25c4.642 0 7.204-2.67 7.204-5.355 0-2.152-.496-3.483-2.432-4.872zm-3.873-3.68c-1.89-.058-3.684-2.143-4.01-4.657-.326-2.516.94-4.44 2.828-4.383 1.89.058 3.685 2.075 4.01 4.59.326 2.514-.94 4.506-2.828 4.45zm-.913 12.722c-2.814 0-4.672-1.807-4.672-3.976 0-2.126 2.52-3.896 5.333-3.865.657.007 1.27.114 1.824.296 1.527 1.076 2.45 1.685 2.76 2.912.057.25.09.505.09.767 0 2.17-1.38 3.864-5.335 3.864z" fill="#fff"/>
</svg>
